<svg xmlns="http://www.w3.org/2000/svg" viewBox="0 0 218.569 22.719">
  <path
    fill="currentColor"
    d="M0 .439h6.4l5.212 8.458L16.816.439h6.4v21.842H17.2V9.732l-5.583 8.551h-.126L5.928 9.8v12.481H0Z"
  />
  <path
    fill="currentColor"
    d="M26.337 11.418v-.059A11.44 11.44 0 0 1 38.135 0c6.746 0 11.73 5.026 11.73 11.3v.059a11.44 11.44 0 0 1-11.8 11.359c-6.746 0-11.73-5.026-11.73-11.292Zm17.347 0v-.059a5.672 5.672 0 0 0-5.617-5.894 5.547 5.547 0 0 0-5.523 5.835v.059a5.666 5.666 0 0 0 5.583 5.895 5.594 5.594 0 0 0 5.557-5.836Z"
  />
  <path
    fill="currentColor"
    d="M53.01.439h8.425c7.8 0 12.329 4.495 12.329 10.794v.059c0 6.3-4.588 10.98-12.447 10.98h-8.3V.439Zm8.517 16.48c3.623 0 6.023-2 6.023-5.525v-.059c0-3.491-2.4-5.524-6.021-5.524h-2.464v11.108Z"
  />
  <path
    fill="currentColor"
    d="M76.884.439H94.45v5.153H82.872v3.305h10.482v4.773H82.872v3.466h11.73v5.153H76.876V.439Z"
  />
  <path
    fill="currentColor"
    d="M97.697.439h10.331c3.34 0 5.65.877 7.118 2.37a6.762 6.762 0 0 1 1.931 5.085v.059a6.913 6.913 0 0 1-4.495 6.713l5.212 7.615h-6.991l-4.4-6.612h-2.656v6.612h-6.058V.439Zm10.052 10.48c2.058 0 3.247-1 3.247-2.589v-.057c0-1.72-1.248-2.589-3.28-2.589h-3.967v5.245h4Z"
  />
  <path
    fill="currentColor"
    d="M120.129.439h5.65l8.99 11.545V.439h5.988v21.842h-5.3l-9.327-11.983v11.983h-5.988V.439Z"
  />
  <path fill="currentColor" d="M142.873.439h6.772l4.959 13.822L159.562.439h6.645l-8.863 22h-5.616Z" />
  <path fill="currentColor" d="M168.459.439h6.08v21.842h-6.08Z" />
  <path
    fill="currentColor"
    d="M178.537.439h11.2c2.749 0 4.68.683 5.962 1.965a4.791 4.791 0 0 1 1.408 3.525v.059a5.048 5.048 0 0 1-3.373 4.866c2.656.877 4.335 2.37 4.335 5.338v.059c0 3.744-3.061 6.021-8.273 6.021h-11.267V.439Zm9.706 8.7c1.838 0 2.867-.624 2.867-1.906v-.056c0-1.189-.936-1.872-2.749-1.872h-3.932v3.837h3.8Zm.877 8.273c1.838 0 2.9-.717 2.9-2v-.059c0-1.189-.936-1.965-2.968-1.965h-4.623v4.031h4.68Z"
  />
  <path
    fill="currentColor"
    d="M200.851.439h17.566v5.153h-11.578v3.305h10.482v4.773h-10.482v3.466h11.73v5.153h-17.726V.439Z"
  />
</svg>
